<svg version="1.1" xmlns="http://www.w3.org/2000/svg"
xmlns:xlink="http://www.w3.org/1999/xlink">
	  	<g id="croos_icon" style="enable-background:new 0 0 612 612;fill: #90949c;">
			<polygon points="612,36.004 576.521,0.603 306,270.608 35.478,0.603 0,36.004 270.522,306.011 0,575.997 35.478,611.397      306,341.411 576.521,611.397 612,575.997 341.459,306.011    "/>
		</g>


	<g  id="vettedfull_icon" style="enable-background:new 0 0 18.7 18.7;">
    <g xmlns="http://www.w3.org/2000/svg">
	<path class="st12" style="fill:#2CA0DA" d="M0.2,9.1c0,0.7,0,1.4,0.2,2.1C0.2,10.5,0.2,9.8,0.2,9.1z"/>
	<path class="st12" style="fill:#2CA0DA" d="M4.9,1.4c0.6-0.4,1.3-0.6,2-0.8C6.1,0.8,5.5,1,4.9,1.4z"/>
	<path class="st12" style="fill:#2CA0DA" d="M1.8,14.5c0.4,0.6,0.9,1.1,1.4,1.6C2.7,15.7,2.2,15.1,1.8,14.5z"/>
	<path class="st13" style="fill:none" d="M5.7,6.4C5.6,6.5,5.6,6.6,5.5,6.7C5.6,6.6,5.6,6.5,5.7,6.4z"/>
	<path class="st13" style="fill:none" d="M10.6,0.3c0.6,0.1,1.2,0.2,1.7,0.4C11.8,0.5,11.2,0.4,10.6,0.3z"/>
	<path class="st13" style="fill:none" d="M8.2,18.5c-0.6-0.1-1.2-0.2-1.7-0.4C7,18.2,7.6,18.4,8.2,18.5z"/>
	<path class="st12" style="fill:#2CA0DA" d="M1,5.6c0.3-0.6,0.7-1.3,1.1-1.8C1.7,4.3,1.3,4.9,1,5.6z"/>
	<path class="st12" style="fill:#2CA0DA" d="M18.4,7.5c0.1,0.7,0.2,1.4,0.2,2.1C18.6,9,18.5,8.2,18.4,7.5z"/>
	<path class="st12" style="fill:#2CA0DA" d="M17.7,13.2c-0.3,0.6-0.7,1.3-1.1,1.8C17.1,14.4,17.4,13.8,17.7,13.2z"/>
	<path class="st13" style="fill:none" d="M13.9,17.3c-0.6,0.4-1.3,0.6-2,0.8C12.6,18,13.3,17.7,13.9,17.3z"/>
	<path class="st12" style="fill:#2CA0DA" d="M9.9,18.5l-1.1-1.1l1.1-1.1c0,0,0,0,0,0c0,0,0,0,0,0c0,0,0,0,0,0c0,0,0,0,0,0c0,0,0,0,0,0c0,0,0,0,0,0   c0,0,0,0,0,0c-0.2,0-0.4,0-0.6,0c-1.1,0-2.1-0.2-3.1-0.7c0,0,0,0,0,0c0,0,0,0,0,0l-1.7,0.3c0,0,0,0,0,0l0.2,1.4c0,0,0,0,0,0   c0,0,0,0,0,0c0.8,0.4,1.6,0.8,2.4,1c0.7,0.2,1.4,0.2,2.1,0.2C9.5,18.5,9.7,18.5,9.9,18.5C9.9,18.5,9.9,18.5,9.9,18.5   C9.9,18.5,9.9,18.5,9.9,18.5C9.9,18.5,9.9,18.5,9.9,18.5C9.9,18.5,9.9,18.5,9.9,18.5C9.9,18.5,9.9,18.5,9.9,18.5   C9.9,18.5,9.9,18.5,9.9,18.5C9.9,18.5,9.9,18.5,9.9,18.5C9.9,18.5,9.9,18.5,9.9,18.5C9.9,18.5,9.9,18.5,9.9,18.5z M6.4,18.1   c0.6,0.2,1.1,0.3,1.7,0.4C7.6,18.4,7,18.2,6.4,18.1z"/>
	<path class="st12" style="fill:#2CA0DA" d="M18.5,8.6c-0.1-0.9-0.3-1.7-0.6-2.5c0,0,0,0,0,0c0,0,0,0,0,0c0,0,0,0,0,0c0,0,0,0,0,0c0,0,0,0,0,0   c0,0,0,0,0,0l-0.7,1.4l-1.4-0.7c0,0,0,0,0,0c0,0,0,0,0,0c0,0,0,0,0,0c0,0,0,0,0,0c0,0,0,0,0,0c0,0,0,0,0,0c0.5,1.2,0.6,2.4,0.5,3.7   c0,0,0,0,0,0c0,0,0,0,0,0l0.8,1.5c0,0,0,0,0,0c0,0,0,0,0,0l1.3-0.7c0,0,0,0,0,0c0,0,0,0,0,0C18.5,10.3,18.6,9.5,18.5,8.6z    M18.4,7.5c0.1,0.7,0.2,1.4,0.2,2.1C18.6,9,18.5,8.2,18.4,7.5z"/>
	<path class="st12" style="fill:#2CA0DA" d="M8.9,0.2l1.1,1.1L8.8,2.4c0,0,0,0,0,0c0,0,0,0,0,0c0,0,0,0,0,0c0,0,0,0,0,0c0,0,0,0,0,0c0,0,0,0,0,0   c0,0,0,0,0,0c0.2,0,0.4,0,0.6,0c1.1,0,2.1,0.2,3.1,0.7c0,0,0,0,0,0c0,0,0,0,0,0l1.7-0.3c0,0,0,0,0,0l-0.2-1.4c0,0,0,0,0,0   c0,0,0,0,0,0c-0.8-0.4-1.6-0.8-2.4-1c-0.7-0.2-1.4-0.2-2.1-0.2C9.2,0.2,9,0.2,8.9,0.2C8.9,0.2,8.9,0.2,8.9,0.2   C8.9,0.2,8.9,0.2,8.9,0.2C8.9,0.2,8.9,0.2,8.9,0.2C8.9,0.2,8.9,0.2,8.9,0.2C8.9,0.2,8.9,0.2,8.9,0.2C8.9,0.2,8.9,0.2,8.9,0.2z    M12.3,0.7c-0.6-0.2-1.1-0.3-1.7-0.4C11.2,0.4,11.8,0.5,12.3,0.7z"/>
	<path class="st12" style="fill:#2CA0DA" d="M3.6,2.3C3.6,2.3,3.6,2.3,3.6,2.3C3.6,2.3,3.6,2.3,3.6,2.3l1.5,0.2L4.8,4.1c0,0,0,0,0,0c0,0,0,0,0,0   c0,0,0,0,0,0c0,0,0,0,0,0c0,0,0,0,0,0c0,0,0,0,0,0c1-0.8,2.1-1.4,3.4-1.6c0,0,0,0,0,0c0,0,0,0,0,0l1.2-1.2c0,0,0,0,0,0l-1-1   c0,0,0,0,0,0c0,0,0,0,0,0C7.5,0.4,6.6,0.6,5.8,0.9C5,1.3,4.3,1.7,3.6,2.3C3.6,2.3,3.6,2.3,3.6,2.3C3.6,2.3,3.6,2.3,3.6,2.3   C3.6,2.3,3.6,2.3,3.6,2.3C3.6,2.3,3.6,2.3,3.6,2.3z M6.8,0.6C6.1,0.8,5.5,1,4.9,1.4C5.5,1,6.1,0.8,6.8,0.6z"/>
	<path class="st12" style="fill:#2CA0DA" d="M0.5,7C0.5,7,0.5,7,0.5,7C0.5,7,0.5,7,0.5,7C0.5,7,0.5,7,0.5,7C0.5,7,0.5,7,0.5,7l1.4-0.7l0.7,1.4   c0,0,0,0,0,0c0,0,0,0,0,0c0,0,0,0,0,0c0,0,0,0,0,0c0,0,0,0,0,0c0,0,0,0,0,0c0.3-1.2,0.9-2.3,1.8-3.2c0,0,0,0,0,0c0,0,0,0,0,0   l0.3-1.7c0,0,0,0,0,0L3.2,2.6c0,0,0,0,0,0c0,0,0,0,0,0c0,0,0,0,0,0C2.5,3.2,2,3.9,1.5,4.6C1.1,5.4,0.7,6.2,0.5,7C0.5,7,0.5,7,0.5,7   C0.5,7,0.5,7,0.5,7z M2.1,3.8C1.7,4.3,1.3,4.9,1,5.6C1.3,4.9,1.7,4.3,2.1,3.8z"/>
	<path class="st12" style="fill:#2CA0DA" d="M2.9,12.1C2.9,12.1,2.9,12.1,2.9,12.1C2.9,12.1,2.9,12.1,2.9,12.1C2.9,12.1,2.9,12.1,2.9,12.1   C2.9,12.1,2.9,12.1,2.9,12.1C2.9,12.1,2.9,12.1,2.9,12.1C2.9,12.1,2.9,12.1,2.9,12.1c-0.5-1.2-0.6-2.4-0.5-3.7c0,0,0,0,0,0   c0,0,0,0,0,0L1.7,6.9c0,0,0,0,0,0L0.4,7.5c0,0,0,0,0,0c0,0,0,0,0,0c-0.2,0.9-0.2,1.7-0.2,2.6c0.1,0.9,0.3,1.7,0.6,2.5c0,0,0,0,0,0   c0,0,0,0,0,0c0,0,0,0,0,0c0,0,0,0,0,0c0,0,0,0,0,0c0,0,0,0,0,0l0.7-1.4L2.9,12.1z M0.2,9.1c0,0.7,0,1.4,0.2,2.1   C0.2,10.5,0.2,9.8,0.2,9.1z"/>
	<path class="st12" style="fill:#2CA0DA" d="M4.2,15.6l1.6-0.2c0,0,0,0,0,0c0,0,0,0,0,0c0,0,0,0,0,0c0,0,0,0,0,0c0,0,0,0,0,0c0,0,0,0,0,0   c-1.1-0.7-1.9-1.6-2.5-2.7c0,0,0,0,0,0c0,0,0,0,0,0l-1.5-0.8c0,0,0,0,0,0L1,13.2c0,0,0,0,0,0c0,0,0,0,0,0c0.4,0.8,0.8,1.5,1.4,2.2   c0.6,0.7,1.2,1.2,2,1.7c0,0,0,0,0,0c0,0,0,0,0,0c0,0,0,0,0,0c0,0,0,0,0,0c0,0,0,0,0,0c0,0,0,0,0,0L4.2,15.6z M1.8,14.5   c0.4,0.6,0.9,1.1,1.4,1.6C2.7,15.7,2.2,15.1,1.8,14.5z"/>
	<path class="st12" style="fill:#2CA0DA" d="M15.2,16.5C15.2,16.5,15.2,16.5,15.2,16.5C15.2,16.5,15.2,16.5,15.2,16.5l-1.5-0.2l0.2-1.6c0,0,0,0,0,0   c0,0,0,0,0,0c0,0,0,0,0,0c0,0,0,0,0,0c0,0,0,0,0,0c0,0,0,0,0,0c-1,0.8-2.1,1.4-3.4,1.6c0,0,0,0,0,0c0,0,0,0,0,0l-1.2,1.2   c0,0,0,0,0,0l1,1c0,0,0,0,0,0c0,0,0,0,0,0c0.9-0.1,1.7-0.3,2.5-0.7C13.7,17.5,14.5,17,15.2,16.5C15.2,16.5,15.2,16.5,15.2,16.5   C15.2,16.5,15.2,16.5,15.2,16.5C15.2,16.5,15.2,16.5,15.2,16.5C15.2,16.5,15.2,16.5,15.2,16.5z M11.9,18.2c0.7-0.2,1.3-0.5,2-0.8   C13.3,17.7,12.6,18,11.9,18.2z"/>
	<path class="st12" style="fill:#2CA0DA" d="M18.2,11.7C18.2,11.7,18.2,11.7,18.2,11.7C18.2,11.7,18.2,11.7,18.2,11.7C18.2,11.7,18.2,11.7,18.2,11.7   L18.2,11.7L18.2,11.7C18.2,11.7,18.2,11.7,18.2,11.7l-1.4,0.7L16.2,11c0,0,0,0,0,0c0,0,0,0,0,0c0,0,0,0,0,0c0,0,0,0,0,0   c0,0,0,0,0,0c0,0,0,0,0,0c-0.3,1.2-0.9,2.3-1.8,3.2c0,0,0,0,0,0c0,0,0,0,0,0l-0.3,1.7c0,0,0,0,0,0l1.4,0.2c0,0,0,0,0,0c0,0,0,0,0,0   c0.6-0.6,1.2-1.3,1.7-2C17.7,13.4,18,12.6,18.2,11.7C18.2,11.7,18.2,11.7,18.2,11.7C18.2,11.7,18.2,11.7,18.2,11.7z M16.6,15   c0.4-0.6,0.8-1.2,1.1-1.8C17.4,13.8,17.1,14.4,16.6,15z"/>
	<path class="st11" style="fill:#5A5C61;" d="M9,8.7L6.1,5.9c0,0,0,0,0,0c0,0,0,0,0,0C6,5.8,5.8,5.8,5.7,5.9C5.4,6.1,5.2,6.4,5,6.6   C4.8,6.9,4.6,7.2,4.4,7.5l0,0c0,0.1,0,0.1,0,0.2c0,0.1,0,0.1,0.1,0.2c0,0,0,0,0,0l4.4,4.4c0.1,0.1,0.1,0.1,0.2,0.1   c0.1,0,0.2,0,0.2-0.1l8.1-8.1c0,0,0,0,0,0c0,0,0,0,0,0c0-0.1,0.1-0.1,0.1-0.2c0-0.1,0-0.1-0.1-0.2c-0.4-0.5-0.8-1-1.3-1.5   c-0.1-0.1-0.3-0.1-0.5,0c0,0,0,0,0,0c0,0,0,0,0,0l0,0c0,0,0,0,0,0c0,0,0,0,0,0v0L9.4,8.7C9.3,8.9,9.1,8.9,9,8.7z M4.8,6.8   C4.9,6.7,5,6.6,5.1,6.4C5,6.6,4.9,6.7,4.8,6.8z"/>
</g>
</g>


<g id="vettedhalf_icon" style="enable-background:new 0 0 18.7 18.7;">
	<path class="st21" style="fill:#D8A02E" d="M0.2,9.1c0,0.7,0,1.4,0.2,2.1C0.2,10.5,0.2,9.8,0.2,9.1z"/>
	<path class="st21" style="fill:#D8A02E" d="M4.9,1.4c0.6-0.4,1.3-0.6,2-0.8C6.1,0.8,5.5,1,4.9,1.4z"/>
	<path class="st21" style="fill:#D8A02E" d="M1.8,14.5c0.4,0.6,0.9,1.1,1.4,1.6C2.7,15.7,2.2,15.1,1.8,14.5z"/>
	<path class="st20" style="fill:#787A7F" d="M5.7,6.4C5.6,6.5,5.6,6.6,5.5,6.7C5.6,6.6,5.6,6.5,5.7,6.4z"/>
	<path class="st21" style="fill:#D8A02E" d="M10.6,0.3c0.6,0.1,1.2,0.2,1.7,0.4C11.8,0.5,11.2,0.4,10.6,0.3z"/>
	<path class="st21" style="fill:#D8A02E" d="M8.2,18.5c-0.6-0.1-1.2-0.2-1.7-0.4C7,18.2,7.6,18.4,8.2,18.5z"/>
	<path class="st21" style="fill:#D8A02E" d="M1,5.6c0.3-0.6,0.7-1.3,1.1-1.8C1.7,4.3,1.3,4.9,1,5.6z"/>
	<path class="st21" style="fill:#D8A02E" d="M18.4,7.5c0.1,0.7,0.2,1.4,0.2,2.1C18.6,9,18.5,8.2,18.4,7.5z"/>
	<path class="st21" style="fill:#D8A02E" d="M17.7,13.2c-0.3,0.6-0.7,1.3-1.1,1.8C17.1,14.4,17.4,13.8,17.7,13.2z"/>
	<path class="st21" style="fill:#D8A02E" d="M13.9,17.3c-0.6,0.4-1.3,0.6-2,0.8C12.6,18,13.3,17.7,13.9,17.3z"/>
	<path class="st21" style="fill:#D8A02E" d="M9.9,18.5l-1.1-1.1l1.1-1.1c0,0,0,0,0,0c0,0,0,0,0,0c0,0,0,0,0,0c0,0,0,0,0,0c0,0,0,0,0,0c0,0,0,0,0,0   c0,0,0,0,0,0c-0.2,0-0.4,0-0.6,0c-1.1,0-2.1-0.2-3.1-0.7c0,0,0,0,0,0c0,0,0,0,0,0l-1.7,0.3c0,0,0,0,0,0l0.2,1.4c0,0,0,0,0,0   c0,0,0,0,0,0c0.8,0.4,1.6,0.8,2.4,1c0.7,0.2,1.4,0.2,2.1,0.2C9.5,18.5,9.7,18.5,9.9,18.5C9.9,18.5,9.9,18.5,9.9,18.5   C9.9,18.5,9.9,18.5,9.9,18.5C9.9,18.5,9.9,18.5,9.9,18.5C9.9,18.5,9.9,18.5,9.9,18.5C9.9,18.5,9.9,18.5,9.9,18.5   C9.9,18.5,9.9,18.5,9.9,18.5C9.9,18.5,9.9,18.5,9.9,18.5C9.9,18.5,9.9,18.5,9.9,18.5C9.9,18.5,9.9,18.5,9.9,18.5z M6.4,18.1   c0.6,0.2,1.1,0.3,1.7,0.4C7.6,18.4,7,18.2,6.4,18.1z"/>
	<path class="st21" style="fill:#D8A02E" d="M18.5,8.6c-0.1-0.9-0.3-1.7-0.6-2.5c0,0,0,0,0,0c0,0,0,0,0,0c0,0,0,0,0,0c0,0,0,0,0,0c0,0,0,0,0,0   c0,0,0,0,0,0l-0.7,1.4l-1.4-0.7c0,0,0,0,0,0c0,0,0,0,0,0c0,0,0,0,0,0c0,0,0,0,0,0c0,0,0,0,0,0c0,0,0,0,0,0c0.5,1.2,0.6,2.4,0.5,3.7   c0,0,0,0,0,0c0,0,0,0,0,0l0.8,1.5c0,0,0,0,0,0c0,0,0,0,0,0l1.3-0.7c0,0,0,0,0,0c0,0,0,0,0,0C18.5,10.3,18.6,9.5,18.5,8.6z    M18.4,7.5c0.1,0.7,0.2,1.4,0.2,2.1C18.6,9,18.5,8.2,18.4,7.5z"/>
	<path class="st21" style="fill:#D8A02E" d="M8.9,0.2l1.1,1.1L8.8,2.4c0,0,0,0,0,0c0,0,0,0,0,0c0,0,0,0,0,0c0,0,0,0,0,0c0,0,0,0,0,0c0,0,0,0,0,0   c0,0,0,0,0,0c0.2,0,0.4,0,0.6,0c1.1,0,2.1,0.2,3.1,0.7c0,0,0,0,0,0c0,0,0,0,0,0l1.7-0.3c0,0,0,0,0,0l-0.2-1.4c0,0,0,0,0,0   c0,0,0,0,0,0c-0.8-0.4-1.6-0.8-2.4-1c-0.7-0.2-1.4-0.2-2.1-0.2C9.2,0.2,9,0.2,8.9,0.2C8.9,0.2,8.9,0.2,8.9,0.2   C8.9,0.2,8.9,0.2,8.9,0.2C8.9,0.2,8.9,0.2,8.9,0.2C8.9,0.2,8.9,0.2,8.9,0.2C8.9,0.2,8.9,0.2,8.9,0.2C8.9,0.2,8.9,0.2,8.9,0.2z    M12.3,0.7c-0.6-0.2-1.1-0.3-1.7-0.4C11.2,0.4,11.8,0.5,12.3,0.7z"/>
	<path class="st21" style="fill:#D8A02E" d="M3.6,2.3C3.6,2.3,3.6,2.3,3.6,2.3C3.6,2.3,3.6,2.3,3.6,2.3l1.5,0.2L4.8,4.1c0,0,0,0,0,0c0,0,0,0,0,0   c0,0,0,0,0,0c0,0,0,0,0,0c0,0,0,0,0,0c0,0,0,0,0,0c1-0.8,2.1-1.4,3.4-1.6c0,0,0,0,0,0c0,0,0,0,0,0l1.2-1.2c0,0,0,0,0,0l-1-1   c0,0,0,0,0,0c0,0,0,0,0,0C7.5,0.4,6.6,0.6,5.8,0.9C5,1.3,4.3,1.7,3.6,2.3C3.6,2.3,3.6,2.3,3.6,2.3C3.6,2.3,3.6,2.3,3.6,2.3   C3.6,2.3,3.6,2.3,3.6,2.3C3.6,2.3,3.6,2.3,3.6,2.3z M6.8,0.6C6.1,0.8,5.5,1,4.9,1.4C5.5,1,6.1,0.8,6.8,0.6z"/>
	<path class="st21" style="fill:#D8A02E" d="M0.5,7C0.5,7,0.5,7,0.5,7C0.5,7,0.5,7,0.5,7C0.5,7,0.5,7,0.5,7C0.5,7,0.5,7,0.5,7l1.4-0.7l0.7,1.4   c0,0,0,0,0,0c0,0,0,0,0,0c0,0,0,0,0,0c0,0,0,0,0,0c0,0,0,0,0,0c0,0,0,0,0,0c0.3-1.2,0.9-2.3,1.8-3.2c0,0,0,0,0,0c0,0,0,0,0,0   l0.3-1.7c0,0,0,0,0,0L3.2,2.6c0,0,0,0,0,0c0,0,0,0,0,0c0,0,0,0,0,0C2.5,3.2,2,3.9,1.5,4.6C1.1,5.4,0.7,6.2,0.5,7C0.5,7,0.5,7,0.5,7   C0.5,7,0.5,7,0.5,7z M2.1,3.8C1.7,4.3,1.3,4.9,1,5.6C1.3,4.9,1.7,4.3,2.1,3.8z"/>
	<path class="st21" style="fill:#D8A02E" d="M2.9,12.1C2.9,12.1,2.9,12.1,2.9,12.1C2.9,12.1,2.9,12.1,2.9,12.1C2.9,12.1,2.9,12.1,2.9,12.1   C2.9,12.1,2.9,12.1,2.9,12.1C2.9,12.1,2.9,12.1,2.9,12.1C2.9,12.1,2.9,12.1,2.9,12.1c-0.5-1.2-0.6-2.4-0.5-3.7c0,0,0,0,0,0   c0,0,0,0,0,0L1.7,6.9c0,0,0,0,0,0L0.4,7.5c0,0,0,0,0,0c0,0,0,0,0,0c-0.2,0.9-0.2,1.7-0.2,2.6c0.1,0.9,0.3,1.7,0.6,2.5c0,0,0,0,0,0   c0,0,0,0,0,0c0,0,0,0,0,0c0,0,0,0,0,0c0,0,0,0,0,0c0,0,0,0,0,0l0.7-1.4L2.9,12.1z M0.2,9.1c0,0.7,0,1.4,0.2,2.1   C0.2,10.5,0.2,9.8,0.2,9.1z"/>
	<path class="st21" style="fill:#D8A02E" d="M4.2,15.6l1.6-0.2c0,0,0,0,0,0c0,0,0,0,0,0c0,0,0,0,0,0c0,0,0,0,0,0c0,0,0,0,0,0c0,0,0,0,0,0   c-1.1-0.7-1.9-1.6-2.5-2.7c0,0,0,0,0,0c0,0,0,0,0,0l-1.5-0.8c0,0,0,0,0,0L1,13.2c0,0,0,0,0,0c0,0,0,0,0,0c0.4,0.8,0.8,1.5,1.4,2.2   c0.6,0.7,1.2,1.2,2,1.7c0,0,0,0,0,0c0,0,0,0,0,0c0,0,0,0,0,0c0,0,0,0,0,0c0,0,0,0,0,0c0,0,0,0,0,0L4.2,15.6z M1.8,14.5   c0.4,0.6,0.9,1.1,1.4,1.6C2.7,15.7,2.2,15.1,1.8,14.5z"/>
	<path class="st21" style="fill:#D8A02E" d="M15.2,16.5C15.2,16.5,15.2,16.5,15.2,16.5C15.2,16.5,15.2,16.5,15.2,16.5l-1.5-0.2l0.2-1.6c0,0,0,0,0,0   c0,0,0,0,0,0c0,0,0,0,0,0c0,0,0,0,0,0c0,0,0,0,0,0c0,0,0,0,0,0c-1,0.8-2.1,1.4-3.4,1.6c0,0,0,0,0,0c0,0,0,0,0,0l-1.2,1.2   c0,0,0,0,0,0l1,1c0,0,0,0,0,0c0,0,0,0,0,0c0.9-0.1,1.7-0.3,2.5-0.7C13.7,17.5,14.5,17,15.2,16.5C15.2,16.5,15.2,16.5,15.2,16.5   C15.2,16.5,15.2,16.5,15.2,16.5C15.2,16.5,15.2,16.5,15.2,16.5C15.2,16.5,15.2,16.5,15.2,16.5z M11.9,18.2c0.7-0.2,1.3-0.5,2-0.8   C13.3,17.7,12.6,18,11.9,18.2z"/>
	<path class="st21" style="fill:#D8A02E" d="M18.2,11.7C18.2,11.7,18.2,11.7,18.2,11.7C18.2,11.7,18.2,11.7,18.2,11.7C18.2,11.7,18.2,11.7,18.2,11.7   L18.2,11.7L18.2,11.7C18.2,11.7,18.2,11.7,18.2,11.7l-1.4,0.7L16.2,11c0,0,0,0,0,0c0,0,0,0,0,0c0,0,0,0,0,0c0,0,0,0,0,0   c0,0,0,0,0,0c0,0,0,0,0,0c-0.3,1.2-0.9,2.3-1.8,3.2c0,0,0,0,0,0c0,0,0,0,0,0l-0.3,1.7c0,0,0,0,0,0l1.4,0.2c0,0,0,0,0,0c0,0,0,0,0,0   c0.6-0.6,1.2-1.3,1.7-2C17.7,13.4,18,12.6,18.2,11.7C18.2,11.7,18.2,11.7,18.2,11.7C18.2,11.7,18.2,11.7,18.2,11.7z M16.6,15   c0.4-0.6,0.8-1.2,1.1-1.8C17.4,13.8,17.1,14.4,16.6,15z"/>
	<path class="st20" style="fill:#787A7F" d="M9,8.7L6.1,5.9c0,0,0,0,0,0c0,0,0,0,0,0C6,5.8,5.8,5.8,5.7,5.9C5.4,6.1,5.2,6.4,5,6.6   C4.8,6.9,4.6,7.2,4.4,7.5l0,0c0,0.1,0,0.1,0,0.2c0,0.1,0,0.1,0.1,0.2c0,0,0,0,0,0l4.4,4.4c0.1,0.1,0.1,0.1,0.2,0.1   c0.1,0,0.2,0,0.2-0.1l8.1-8.1c0,0,0,0,0,0c0,0,0,0,0,0c0-0.1,0.1-0.1,0.1-0.2c0-0.1,0-0.1-0.1-0.2c-0.4-0.5-0.8-1-1.3-1.5   c-0.1-0.1-0.3-0.1-0.5,0c0,0,0,0,0,0c0,0,0,0,0,0l0,0c0,0,0,0,0,0c0,0,0,0,0,0v0L9.4,8.7C9.3,8.9,9.1,8.9,9,8.7z M4.8,6.8   C4.9,6.7,5,6.6,5.1,6.4C5,6.6,4.9,6.7,4.8,6.8z"/>
</g>




<g id="vettednone_icon" style="enable-background:new 0 0 18.7 18.7;">
	<path class="st21" style="fill:#efece7" d="M0.2,9.1c0,0.7,0,1.4,0.2,2.1C0.2,10.5,0.2,9.8,0.2,9.1z"/>
	<path class="st21" style="fill:#efece7" d="M4.9,1.4c0.6-0.4,1.3-0.6,2-0.8C6.1,0.8,5.5,1,4.9,1.4z"/>
	<path class="st21" style="fill:#efece7" d="M1.8,14.5c0.4,0.6,0.9,1.1,1.4,1.6C2.7,15.7,2.2,15.1,1.8,14.5z"/>
	<path class="st20" style="fill:#eaeaea" d="M5.7,6.4C5.6,6.5,5.6,6.6,5.5,6.7C5.6,6.6,5.6,6.5,5.7,6.4z"/>
	<path class="st21" style="fill:#efece7" d="M10.6,0.3c0.6,0.1,1.2,0.2,1.7,0.4C11.8,0.5,11.2,0.4,10.6,0.3z"/>
	<path class="st21" style="fill:#efece7" d="M8.2,18.5c-0.6-0.1-1.2-0.2-1.7-0.4C7,18.2,7.6,18.4,8.2,18.5z"/>
	<path class="st21" style="fill:#efece7" d="M1,5.6c0.3-0.6,0.7-1.3,1.1-1.8C1.7,4.3,1.3,4.9,1,5.6z"/>
	<path class="st21" style="fill:#efece7" d="M18.4,7.5c0.1,0.7,0.2,1.4,0.2,2.1C18.6,9,18.5,8.2,18.4,7.5z"/>
	<path class="st21" style="fill:#efece7" d="M17.7,13.2c-0.3,0.6-0.7,1.3-1.1,1.8C17.1,14.4,17.4,13.8,17.7,13.2z"/>
	<path class="st21" style="fill:#efece7" d="M13.9,17.3c-0.6,0.4-1.3,0.6-2,0.8C12.6,18,13.3,17.7,13.9,17.3z"/>
	<path class="st21" style="fill:#efece7" d="M9.9,18.5l-1.1-1.1l1.1-1.1c0,0,0,0,0,0c0,0,0,0,0,0c0,0,0,0,0,0c0,0,0,0,0,0c0,0,0,0,0,0c0,0,0,0,0,0   c0,0,0,0,0,0c-0.2,0-0.4,0-0.6,0c-1.1,0-2.1-0.2-3.1-0.7c0,0,0,0,0,0c0,0,0,0,0,0l-1.7,0.3c0,0,0,0,0,0l0.2,1.4c0,0,0,0,0,0   c0,0,0,0,0,0c0.8,0.4,1.6,0.8,2.4,1c0.7,0.2,1.4,0.2,2.1,0.2C9.5,18.5,9.7,18.5,9.9,18.5C9.9,18.5,9.9,18.5,9.9,18.5   C9.9,18.5,9.9,18.5,9.9,18.5C9.9,18.5,9.9,18.5,9.9,18.5C9.9,18.5,9.9,18.5,9.9,18.5C9.9,18.5,9.9,18.5,9.9,18.5   C9.9,18.5,9.9,18.5,9.9,18.5C9.9,18.5,9.9,18.5,9.9,18.5C9.9,18.5,9.9,18.5,9.9,18.5C9.9,18.5,9.9,18.5,9.9,18.5z M6.4,18.1   c0.6,0.2,1.1,0.3,1.7,0.4C7.6,18.4,7,18.2,6.4,18.1z"/>
	<path class="st21" style="fill:#efece7" d="M18.5,8.6c-0.1-0.9-0.3-1.7-0.6-2.5c0,0,0,0,0,0c0,0,0,0,0,0c0,0,0,0,0,0c0,0,0,0,0,0c0,0,0,0,0,0   c0,0,0,0,0,0l-0.7,1.4l-1.4-0.7c0,0,0,0,0,0c0,0,0,0,0,0c0,0,0,0,0,0c0,0,0,0,0,0c0,0,0,0,0,0c0,0,0,0,0,0c0.5,1.2,0.6,2.4,0.5,3.7   c0,0,0,0,0,0c0,0,0,0,0,0l0.8,1.5c0,0,0,0,0,0c0,0,0,0,0,0l1.3-0.7c0,0,0,0,0,0c0,0,0,0,0,0C18.5,10.3,18.6,9.5,18.5,8.6z    M18.4,7.5c0.1,0.7,0.2,1.4,0.2,2.1C18.6,9,18.5,8.2,18.4,7.5z"/>
	<path class="st21" style="fill:#efece7" d="M8.9,0.2l1.1,1.1L8.8,2.4c0,0,0,0,0,0c0,0,0,0,0,0c0,0,0,0,0,0c0,0,0,0,0,0c0,0,0,0,0,0c0,0,0,0,0,0   c0,0,0,0,0,0c0.2,0,0.4,0,0.6,0c1.1,0,2.1,0.2,3.1,0.7c0,0,0,0,0,0c0,0,0,0,0,0l1.7-0.3c0,0,0,0,0,0l-0.2-1.4c0,0,0,0,0,0   c0,0,0,0,0,0c-0.8-0.4-1.6-0.8-2.4-1c-0.7-0.2-1.4-0.2-2.1-0.2C9.2,0.2,9,0.2,8.9,0.2C8.9,0.2,8.9,0.2,8.9,0.2   C8.9,0.2,8.9,0.2,8.9,0.2C8.9,0.2,8.9,0.2,8.9,0.2C8.9,0.2,8.9,0.2,8.9,0.2C8.9,0.2,8.9,0.2,8.9,0.2C8.9,0.2,8.9,0.2,8.9,0.2z    M12.3,0.7c-0.6-0.2-1.1-0.3-1.7-0.4C11.2,0.4,11.8,0.5,12.3,0.7z"/>
	<path class="st21" style="fill:#efece7" d="M3.6,2.3C3.6,2.3,3.6,2.3,3.6,2.3C3.6,2.3,3.6,2.3,3.6,2.3l1.5,0.2L4.8,4.1c0,0,0,0,0,0c0,0,0,0,0,0   c0,0,0,0,0,0c0,0,0,0,0,0c0,0,0,0,0,0c0,0,0,0,0,0c1-0.8,2.1-1.4,3.4-1.6c0,0,0,0,0,0c0,0,0,0,0,0l1.2-1.2c0,0,0,0,0,0l-1-1   c0,0,0,0,0,0c0,0,0,0,0,0C7.5,0.4,6.6,0.6,5.8,0.9C5,1.3,4.3,1.7,3.6,2.3C3.6,2.3,3.6,2.3,3.6,2.3C3.6,2.3,3.6,2.3,3.6,2.3   C3.6,2.3,3.6,2.3,3.6,2.3C3.6,2.3,3.6,2.3,3.6,2.3z M6.8,0.6C6.1,0.8,5.5,1,4.9,1.4C5.5,1,6.1,0.8,6.8,0.6z"/>
	<path class="st21" style="fill:#efece7" d="M0.5,7C0.5,7,0.5,7,0.5,7C0.5,7,0.5,7,0.5,7C0.5,7,0.5,7,0.5,7C0.5,7,0.5,7,0.5,7l1.4-0.7l0.7,1.4   c0,0,0,0,0,0c0,0,0,0,0,0c0,0,0,0,0,0c0,0,0,0,0,0c0,0,0,0,0,0c0,0,0,0,0,0c0.3-1.2,0.9-2.3,1.8-3.2c0,0,0,0,0,0c0,0,0,0,0,0   l0.3-1.7c0,0,0,0,0,0L3.2,2.6c0,0,0,0,0,0c0,0,0,0,0,0c0,0,0,0,0,0C2.5,3.2,2,3.9,1.5,4.6C1.1,5.4,0.7,6.2,0.5,7C0.5,7,0.5,7,0.5,7   C0.5,7,0.5,7,0.5,7z M2.1,3.8C1.7,4.3,1.3,4.9,1,5.6C1.3,4.9,1.7,4.3,2.1,3.8z"/>
	<path class="st21" style="fill:#efece7" d="M2.9,12.1C2.9,12.1,2.9,12.1,2.9,12.1C2.9,12.1,2.9,12.1,2.9,12.1C2.9,12.1,2.9,12.1,2.9,12.1   C2.9,12.1,2.9,12.1,2.9,12.1C2.9,12.1,2.9,12.1,2.9,12.1C2.9,12.1,2.9,12.1,2.9,12.1c-0.5-1.2-0.6-2.4-0.5-3.7c0,0,0,0,0,0   c0,0,0,0,0,0L1.7,6.9c0,0,0,0,0,0L0.4,7.5c0,0,0,0,0,0c0,0,0,0,0,0c-0.2,0.9-0.2,1.7-0.2,2.6c0.1,0.9,0.3,1.7,0.6,2.5c0,0,0,0,0,0   c0,0,0,0,0,0c0,0,0,0,0,0c0,0,0,0,0,0c0,0,0,0,0,0c0,0,0,0,0,0l0.7-1.4L2.9,12.1z M0.2,9.1c0,0.7,0,1.4,0.2,2.1   C0.2,10.5,0.2,9.8,0.2,9.1z"/>
	<path class="st21" style="fill:#efece7" d="M4.2,15.6l1.6-0.2c0,0,0,0,0,0c0,0,0,0,0,0c0,0,0,0,0,0c0,0,0,0,0,0c0,0,0,0,0,0c0,0,0,0,0,0   c-1.1-0.7-1.9-1.6-2.5-2.7c0,0,0,0,0,0c0,0,0,0,0,0l-1.5-0.8c0,0,0,0,0,0L1,13.2c0,0,0,0,0,0c0,0,0,0,0,0c0.4,0.8,0.8,1.5,1.4,2.2   c0.6,0.7,1.2,1.2,2,1.7c0,0,0,0,0,0c0,0,0,0,0,0c0,0,0,0,0,0c0,0,0,0,0,0c0,0,0,0,0,0c0,0,0,0,0,0L4.2,15.6z M1.8,14.5   c0.4,0.6,0.9,1.1,1.4,1.6C2.7,15.7,2.2,15.1,1.8,14.5z"/>
	<path class="st21" style="fill:#efece7" d="M15.2,16.5C15.2,16.5,15.2,16.5,15.2,16.5C15.2,16.5,15.2,16.5,15.2,16.5l-1.5-0.2l0.2-1.6c0,0,0,0,0,0   c0,0,0,0,0,0c0,0,0,0,0,0c0,0,0,0,0,0c0,0,0,0,0,0c0,0,0,0,0,0c-1,0.8-2.1,1.4-3.4,1.6c0,0,0,0,0,0c0,0,0,0,0,0l-1.2,1.2   c0,0,0,0,0,0l1,1c0,0,0,0,0,0c0,0,0,0,0,0c0.9-0.1,1.7-0.3,2.5-0.7C13.7,17.5,14.5,17,15.2,16.5C15.2,16.5,15.2,16.5,15.2,16.5   C15.2,16.5,15.2,16.5,15.2,16.5C15.2,16.5,15.2,16.5,15.2,16.5C15.2,16.5,15.2,16.5,15.2,16.5z M11.9,18.2c0.7-0.2,1.3-0.5,2-0.8   C13.3,17.7,12.6,18,11.9,18.2z"/>
	<path class="st21" style="fill:#efece7" d="M18.2,11.7C18.2,11.7,18.2,11.7,18.2,11.7C18.2,11.7,18.2,11.7,18.2,11.7C18.2,11.7,18.2,11.7,18.2,11.7   L18.2,11.7L18.2,11.7C18.2,11.7,18.2,11.7,18.2,11.7l-1.4,0.7L16.2,11c0,0,0,0,0,0c0,0,0,0,0,0c0,0,0,0,0,0c0,0,0,0,0,0   c0,0,0,0,0,0c0,0,0,0,0,0c-0.3,1.2-0.9,2.3-1.8,3.2c0,0,0,0,0,0c0,0,0,0,0,0l-0.3,1.7c0,0,0,0,0,0l1.4,0.2c0,0,0,0,0,0c0,0,0,0,0,0   c0.6-0.6,1.2-1.3,1.7-2C17.7,13.4,18,12.6,18.2,11.7C18.2,11.7,18.2,11.7,18.2,11.7C18.2,11.7,18.2,11.7,18.2,11.7z M16.6,15   c0.4-0.6,0.8-1.2,1.1-1.8C17.4,13.8,17.1,14.4,16.6,15z"/>
	<path class="st20" style="fill:#eaeaea" d="M9,8.7L6.1,5.9c0,0,0,0,0,0c0,0,0,0,0,0C6,5.8,5.8,5.8,5.7,5.9C5.4,6.1,5.2,6.4,5,6.6   C4.8,6.9,4.6,7.2,4.4,7.5l0,0c0,0.1,0,0.1,0,0.2c0,0.1,0,0.1,0.1,0.2c0,0,0,0,0,0l4.4,4.4c0.1,0.1,0.1,0.1,0.2,0.1   c0.1,0,0.2,0,0.2-0.1l8.1-8.1c0,0,0,0,0,0c0,0,0,0,0,0c0-0.1,0.1-0.1,0.1-0.2c0-0.1,0-0.1-0.1-0.2c-0.4-0.5-0.8-1-1.3-1.5   c-0.1-0.1-0.3-0.1-0.5,0c0,0,0,0,0,0c0,0,0,0,0,0l0,0c0,0,0,0,0,0c0,0,0,0,0,0v0L9.4,8.7C9.3,8.9,9.1,8.9,9,8.7z M4.8,6.8   C4.9,6.7,5,6.6,5.1,6.4C5,6.6,4.9,6.7,4.8,6.8z"/>
</g>

</svg>